<svg width="50" height="50" viewBox="0 0 50 50" fill="none" xmlns="http://www.w3.org/2000/svg">
<mask id="path-1-inside-1_233_59" fill="white">
<path fill-rule="evenodd" clip-rule="evenodd" d="M25 50C38.8071 50 50 38.8071 50 25C50 11.1929 38.8071 0 25 0C11.1929 0 0 11.1929 0 25C0 38.8071 11.1929 50 25 50ZM38.5607 23.9393L29.0147 14.3934C28.4289 13.8076 27.4792 13.8076 26.8934 14.3934C26.3076 14.9792 26.3076 15.9289 26.8934 16.5147L33.8787 23.5H12.5C11.6716 23.5 11 24.1716 11 25C11 25.8284 11.6716 26.5 12.5 26.5H33.8787L26.8934 33.4853C26.3076 34.0711 26.3076 35.0208 26.8934 35.6066C27.4792 36.1924 28.4289 36.1924 29.0147 35.6066L38.5607 26.0607C39.1464 25.4749 39.1464 24.5251 38.5607 23.9393Z"/>
</mask>
<path fill-rule="evenodd" clip-rule="evenodd" d="M25 50C38.8071 50 50 38.8071 50 25C50 11.1929 38.8071 0 25 0C11.1929 0 0 11.1929 0 25C0 38.8071 11.1929 50 25 50ZM38.5607 23.9393L29.0147 14.3934C28.4289 13.8076 27.4792 13.8076 26.8934 14.3934C26.3076 14.9792 26.3076 15.9289 26.8934 16.5147L33.8787 23.5H12.5C11.6716 23.5 11 24.1716 11 25C11 25.8284 11.6716 26.5 12.5 26.5H33.8787L26.8934 33.4853C26.3076 34.0711 26.3076 35.0208 26.8934 35.6066C27.4792 36.1924 28.4289 36.1924 29.0147 35.6066L38.5607 26.0607C39.1464 25.4749 39.1464 24.5251 38.5607 23.9393Z" fill="#181818"/>
<path d="M26.8934 16.5147L27.6005 15.8076L27.6005 15.8076L26.8934 16.5147ZM33.8787 23.5V24.5H36.2929L34.5858 22.7929L33.8787 23.5ZM33.8787 26.5L34.5858 27.2071L36.2929 25.5H33.8787V26.5ZM26.8934 33.4853L27.6005 34.1924L27.6005 34.1924L26.8934 33.4853ZM29.0147 35.6066L28.3076 34.8995L28.3076 34.8995L29.0147 35.6066ZM49 25C49 38.2548 38.2548 49 25 49V51C39.3594 51 51 39.3594 51 25H49ZM25 1C38.2548 1 49 11.7452 49 25H51C51 10.6406 39.3594 -1 25 -1V1ZM1 25C1 11.7452 11.7452 1 25 1V-1C10.6406 -1 -1 10.6406 -1 25H1ZM25 49C11.7452 49 1 38.2548 1 25H-1C-1 39.3594 10.6406 51 25 51V49ZM28.3076 15.1005L37.8536 24.6464L39.2678 23.2322L29.7218 13.6863L28.3076 15.1005ZM27.6005 15.1005C27.7958 14.9052 28.1123 14.9052 28.3076 15.1005L29.7218 13.6863C28.7455 12.71 27.1626 12.71 26.1863 13.6863L27.6005 15.1005ZM27.6005 15.8076C27.4052 15.6123 27.4052 15.2958 27.6005 15.1005L26.1863 13.6863C25.21 14.6626 25.21 16.2455 26.1863 17.2218L27.6005 15.8076ZM34.5858 22.7929L27.6005 15.8076L26.1863 17.2218L33.1716 24.2071L34.5858 22.7929ZM12.5 24.5H33.8787V22.5H12.5V24.5ZM12 25C12 24.7239 12.2239 24.5 12.5 24.5V22.5C11.1193 22.5 10 23.6193 10 25H12ZM12.5 25.5C12.2239 25.5 12 25.2761 12 25H10C10 26.3807 11.1193 27.5 12.5 27.5V25.5ZM33.8787 25.5H12.5V27.5H33.8787V25.5ZM27.6005 34.1924L34.5858 27.2071L33.1716 25.7929L26.1863 32.7782L27.6005 34.1924ZM27.6005 34.8995C27.4052 34.7042 27.4052 34.3876 27.6005 34.1924L26.1863 32.7782C25.21 33.7545 25.21 35.3374 26.1863 36.3137L27.6005 34.8995ZM28.3076 34.8995C28.1123 35.0948 27.7958 35.0948 27.6005 34.8995L26.1863 36.3137C27.1626 37.29 28.7455 37.29 29.7218 36.3137L28.3076 34.8995ZM37.8536 25.3536L28.3076 34.8995L29.7218 36.3137L39.2678 26.7678L37.8536 25.3536ZM37.8536 24.6464C38.0488 24.8417 38.0488 25.1583 37.8536 25.3536L39.2678 26.7678C40.2441 25.7915 40.2441 24.2085 39.2678 23.2322L37.8536 24.6464Z" fill="#1A191F" mask="url(#path-1-inside-1_233_59)"/>
</svg>
