<svg width="51" height="50" viewBox="0 0 51 50" fill="none" xmlns="http://www.w3.org/2000/svg">
<mask id="path-1-inside-1_253_61" fill="white">
<path fill-rule="evenodd" clip-rule="evenodd" d="M25.7634 50C39.5705 50 50.7634 38.8071 50.7634 25C50.7634 11.1929 39.5705 0 25.7634 0C11.9563 0 0.763428 11.1929 0.763428 25C0.763428 38.8071 11.9563 50 25.7634 50ZM12.2028 26.0607L21.7487 35.6066C22.3345 36.1924 23.2842 36.1924 23.87 35.6066C24.4558 35.0208 24.4558 34.0711 23.87 33.4853L16.8847 26.5H38.2634C39.0919 26.5 39.7634 25.8284 39.7634 25C39.7634 24.1716 39.0919 23.5 38.2634 23.5H16.8847L23.87 16.5147C24.4558 15.9289 24.4558 14.9792 23.87 14.3934C23.2842 13.8076 22.3345 13.8076 21.7487 14.3934L12.2028 23.9393C11.617 24.5251 11.617 25.4749 12.2028 26.0607Z"/>
</mask>
<path fill-rule="evenodd" clip-rule="evenodd" d="M25.7634 50C39.5705 50 50.7634 38.8071 50.7634 25C50.7634 11.1929 39.5705 0 25.7634 0C11.9563 0 0.763428 11.1929 0.763428 25C0.763428 38.8071 11.9563 50 25.7634 50ZM12.2028 26.0607L21.7487 35.6066C22.3345 36.1924 23.2842 36.1924 23.87 35.6066C24.4558 35.0208 24.4558 34.0711 23.87 33.4853L16.8847 26.5H38.2634C39.0919 26.5 39.7634 25.8284 39.7634 25C39.7634 24.1716 39.0919 23.5 38.2634 23.5H16.8847L23.87 16.5147C24.4558 15.9289 24.4558 14.9792 23.87 14.3934C23.2842 13.8076 22.3345 13.8076 21.7487 14.3934L12.2028 23.9393C11.617 24.5251 11.617 25.4749 12.2028 26.0607Z" fill="#181818"/>
<path d="M21.7487 35.6066L22.4558 34.8995L22.4558 34.8995L21.7487 35.6066ZM12.2028 26.0607L12.9099 25.3536L12.9099 25.3536L12.2028 26.0607ZM23.87 33.4853L23.1629 34.1924L23.1629 34.1924L23.87 33.4853ZM16.8847 26.5V25.5H14.4705L16.1776 27.2071L16.8847 26.5ZM16.8847 23.5L16.1776 22.7929L14.4705 24.5H16.8847V23.5ZM21.7487 14.3934L21.0416 13.6863L21.0416 13.6863L21.7487 14.3934ZM12.2028 23.9393L12.9099 24.6464L12.9099 24.6464L12.2028 23.9393ZM49.7634 25C49.7634 38.2548 39.0183 49 25.7634 49V51C40.1228 51 51.7634 39.3594 51.7634 25H49.7634ZM25.7634 1C39.0183 1 49.7634 11.7452 49.7634 25H51.7634C51.7634 10.6406 40.1228 -1 25.7634 -1V1ZM1.76343 25C1.76343 11.7452 12.5086 1 25.7634 1V-1C11.404 -1 -0.236572 10.6406 -0.236572 25H1.76343ZM25.7634 49C12.5086 49 1.76343 38.2548 1.76343 25H-0.236572C-0.236572 39.3594 11.404 51 25.7634 51V49ZM22.4558 34.8995L12.9099 25.3536L11.4957 26.7678L21.0416 36.3137L22.4558 34.8995ZM23.1629 34.8995C22.9677 35.0948 22.6511 35.0948 22.4558 34.8995L21.0416 36.3137C22.0179 37.29 23.6008 37.29 24.5771 36.3137L23.1629 34.8995ZM23.1629 34.1924C23.3582 34.3876 23.3582 34.7042 23.1629 34.8995L24.5771 36.3137C25.5534 35.3374 25.5534 33.7545 24.5771 32.7782L23.1629 34.1924ZM16.1776 27.2071L23.1629 34.1924L24.5771 32.7782L17.5919 25.7929L16.1776 27.2071ZM38.2634 25.5H16.8847V27.5H38.2634V25.5ZM38.7634 25C38.7634 25.2761 38.5396 25.5 38.2634 25.5V27.5C39.6441 27.5 40.7634 26.3807 40.7634 25H38.7634ZM38.2634 24.5C38.5396 24.5 38.7634 24.7239 38.7634 25H40.7634C40.7634 23.6193 39.6441 22.5 38.2634 22.5V24.5ZM16.8847 24.5H38.2634V22.5H16.8847V24.5ZM23.1629 15.8076L16.1776 22.7929L17.5919 24.2071L24.5771 17.2218L23.1629 15.8076ZM23.1629 15.1005C23.3582 15.2958 23.3582 15.6123 23.1629 15.8076L24.5771 17.2218C25.5534 16.2455 25.5534 14.6626 24.5771 13.6863L23.1629 15.1005ZM22.4558 15.1005C22.6511 14.9052 22.9677 14.9052 23.1629 15.1005L24.5771 13.6863C23.6008 12.71 22.0179 12.71 21.0416 13.6863L22.4558 15.1005ZM12.9099 24.6464L22.4558 15.1005L21.0416 13.6863L11.4957 23.2322L12.9099 24.6464ZM12.9099 25.3536C12.7146 25.1583 12.7146 24.8417 12.9099 24.6464L11.4957 23.2322C10.5194 24.2085 10.5194 25.7915 11.4957 26.7678L12.9099 25.3536Z" fill="#1A191F" mask="url(#path-1-inside-1_253_61)"/>
</svg>
